<svg xmlns="http://www.w3.org/2000/svg" width="1200" height="630" viewBox="0 0 1200 630">
<defs><radialGradient id="mist"><stop stop-color="#26333d" stop-opacity=".7"/><stop offset="1" stop-color="#080b10" stop-opacity="0"/></radialGradient><radialGradient id="core"><stop stop-color="#edf5ff"/><stop offset=".15" stop-color="#b4c5d6" stop-opacity=".5"/><stop offset="1" stop-color="#b4c5d6" stop-opacity="0"/></radialGradient></defs>
<rect width="1200" height="630" fill="#080b10"/><ellipse cx="840" cy="320" rx="400" ry="300" fill="url(#mist)"/><circle cx="0.0" cy="0.0" r="1.5" fill="#cfdee8" opacity="0.45"/><circle cx="137.5" cy="71.9" r="0.7" fill="#cfdee8" opacity="0.2"/><circle cx="275.0" cy="143.8" r="0.7" fill="#cfdee8" opacity="0.2"/><circle cx="412.5" cy="215.7" r="0.7" fill="#cfdee8" opacity="0.45"/><circle cx="550.0" cy="287.6" r="0.7" fill="#cfdee8" opacity="0.2"/><circle cx="687.5" cy="359.5" r="0.7" fill="#cfdee8" opacity="0.2"/><circle cx="825.0" cy="431.4" r="1.5" fill="#cfdee8" opacity="0.45"/><circle cx="962.5" cy="503.3" r="0.7" fill="#cfdee8" opacity="0.2"/><circle cx="1100.1" cy="575.2" r="0.7" fill="#cfdee8" opacity="0.2"/><circle cx="37.6" cy="17.1" r="0.7" fill="#cfdee8" opacity="0.45"/><circle cx="175.1" cy="89.0" r="0.7" fill="#cfdee8" opacity="0.2"/><circle cx="312.6" cy="160.9" r="0.7" fill="#cfdee8" opacity="0.2"/><circle cx="450.1" cy="232.8" r="1.5" fill="#cfdee8" opacity="0.45"/><circle cx="587.6" cy="304.7" r="0.7" fill="#cfdee8" opacity="0.2"/><circle cx="725.1" cy="376.6" r="0.7" fill="#cfdee8" opacity="0.2"/><circle cx="862.6" cy="448.5" r="0.7" fill="#cfdee8" opacity="0.45"/><circle cx="1000.1" cy="520.4" r="0.7" fill="#cfdee8" opacity="0.2"/><circle cx="1137.6" cy="592.4" r="0.7" fill="#cfdee8" opacity="0.2"/><circle cx="75.1" cy="34.3" r="1.5" fill="#cfdee8" opacity="0.45"/><circle cx="212.6" cy="106.2" r="0.7" fill="#cfdee8" opacity="0.2"/><circle cx="350.1" cy="178.1" r="0.7" fill="#cfdee8" opacity="0.2"/><circle cx="487.6" cy="250.0" r="0.7" fill="#cfdee8" opacity="0.45"/><circle cx="625.2" cy="321.9" r="0.7" fill="#cfdee8" opacity="0.2"/><circle cx="762.7" cy="393.8" r="0.7" fill="#cfdee8" opacity="0.2"/><circle cx="900.2" cy="465.7" r="1.5" fill="#cfdee8" opacity="0.45"/><circle cx="1037.7" cy="537.6" r="0.7" fill="#cfdee8" opacity="0.2"/><circle cx="1175.2" cy="609.5" r="0.7" fill="#cfdee8" opacity="0.2"/><circle cx="112.7" cy="51.4" r="0.7" fill="#cfdee8" opacity="0.45"/><circle cx="250.2" cy="123.3" r="0.7" fill="#cfdee8" opacity="0.2"/><circle cx="387.7" cy="195.2" r="0.7" fill="#cfdee8" opacity="0.2"/><circle cx="525.2" cy="267.1" r="1.5" fill="#cfdee8" opacity="0.45"/><circle cx="662.7" cy="339.0" r="0.7" fill="#cfdee8" opacity="0.2"/><circle cx="800.2" cy="410.9" r="0.7" fill="#cfdee8" opacity="0.2"/><circle cx="937.7" cy="482.8" r="0.7" fill="#cfdee8" opacity="0.45"/><circle cx="1075.2" cy="554.7" r="0.7" fill="#cfdee8" opacity="0.2"/><circle cx="12.7" cy="626.6" r="0.7" fill="#cfdee8" opacity="0.2"/><circle cx="150.3" cy="68.5" r="1.5" fill="#cfdee8" opacity="0.45"/><circle cx="287.8" cy="140.4" r="0.7" fill="#cfdee8" opacity="0.2"/><circle cx="425.3" cy="212.3" r="0.7" fill="#cfdee8" opacity="0.2"/><circle cx="562.8" cy="284.2" r="0.7" fill="#cfdee8" opacity="0.45"/><circle cx="700.3" cy="356.1" r="0.7" fill="#cfdee8" opacity="0.2"/><circle cx="837.8" cy="428.0" r="0.7" fill="#cfdee8" opacity="0.2"/><circle cx="975.3" cy="499.9" r="1.5" fill="#cfdee8" opacity="0.45"/><circle cx="1112.8" cy="571.8" r="0.7" fill="#cfdee8" opacity="0.2"/><circle cx="50.3" cy="13.7" r="0.7" fill="#cfdee8" opacity="0.2"/><circle cx="187.8" cy="85.6" r="0.7" fill="#cfdee8" opacity="0.45"/><circle cx="325.3" cy="157.5" r="0.7" fill="#cfdee8" opacity="0.2"/><circle cx="462.8" cy="229.4" r="0.7" fill="#cfdee8" opacity="0.2"/><circle cx="600.3" cy="301.3" r="1.5" fill="#cfdee8" opacity="0.45"/><circle cx="737.8" cy="373.2" r="0.7" fill="#cfdee8" opacity="0.2"/><circle cx="875.4" cy="445.2" r="0.7" fill="#cfdee8" opacity="0.2"/><circle cx="1012.9" cy="517.1" r="0.7" fill="#cfdee8" opacity="0.45"/><circle cx="1150.4" cy="589.0" r="0.7" fill="#cfdee8" opacity="0.2"/><circle cx="87.9" cy="30.9" r="0.7" fill="#cfdee8" opacity="0.2"/><circle cx="225.4" cy="102.8" r="1.5" fill="#cfdee8" opacity="0.45"/><circle cx="362.9" cy="174.7" r="0.7" fill="#cfdee8" opacity="0.2"/><circle cx="500.4" cy="246.6" r="0.7" fill="#cfdee8" opacity="0.2"/><circle cx="637.9" cy="318.5" r="0.7" fill="#cfdee8" opacity="0.45"/><circle cx="775.4" cy="390.4" r="0.7" fill="#cfdee8" opacity="0.2"/><circle cx="912.9" cy="462.3" r="0.7" fill="#cfdee8" opacity="0.2"/><circle cx="1050.4" cy="534.2" r="1.5" fill="#cfdee8" opacity="0.45"/><circle cx="1187.9" cy="606.1" r="0.7" fill="#cfdee8" opacity="0.2"/><circle cx="125.4" cy="48.0" r="0.7" fill="#cfdee8" opacity="0.2"/><circle cx="262.9" cy="119.9" r="0.7" fill="#cfdee8" opacity="0.45"/><circle cx="400.4" cy="191.8" r="0.7" fill="#cfdee8" opacity="0.2"/><circle cx="538.0" cy="263.7" r="0.7" fill="#cfdee8" opacity="0.2"/><circle cx="675.5" cy="335.6" r="1.5" fill="#cfdee8" opacity="0.45"/><circle cx="813.0" cy="407.5" r="0.7" fill="#cfdee8" opacity="0.2"/><circle cx="950.5" cy="479.4" r="0.7" fill="#cfdee8" opacity="0.2"/><circle cx="1088.0" cy="551.3" r="0.7" fill="#cfdee8" opacity="0.45"/><circle cx="25.5" cy="623.2" r="0.7" fill="#cfdee8" opacity="0.2"/><circle cx="163.0" cy="65.1" r="0.7" fill="#cfdee8" opacity="0.2"/><circle cx="300.5" cy="137.0" r="1.5" fill="#cfdee8" opacity="0.45"/><circle cx="438.0" cy="208.9" r="0.7" fill="#cfdee8" opacity="0.2"/><circle cx="575.5" cy="280.8" r="0.7" fill="#cfdee8" opacity="0.2"/><circle cx="713.0" cy="352.7" r="0.7" fill="#cfdee8" opacity="0.45"/><circle cx="850.5" cy="424.6" r="0.7" fill="#cfdee8" opacity="0.2"/><circle cx="988.0" cy="496.5" r="0.7" fill="#cfdee8" opacity="0.2"/><circle cx="1125.5" cy="568.4" r="1.5" fill="#cfdee8" opacity="0.45"/><circle cx="63.1" cy="10.3" r="0.7" fill="#cfdee8" opacity="0.2"/><circle cx="200.6" cy="82.2" r="0.7" fill="#cfdee8" opacity="0.2"/><circle cx="338.1" cy="154.1" r="0.7" fill="#cfdee8" opacity="0.45"/><circle cx="475.6" cy="226.0" r="0.7" fill="#cfdee8" opacity="0.2"/><circle cx="613.1" cy="297.9" r="0.7" fill="#cfdee8" opacity="0.2"/><circle cx="750.6" cy="369.9" r="1.5" fill="#cfdee8" opacity="0.45"/><circle cx="888.1" cy="441.8" r="0.7" fill="#cfdee8" opacity="0.2"/><circle cx="1025.6" cy="513.7" r="0.7" fill="#cfdee8" opacity="0.2"/><circle cx="1163.1" cy="585.6" r="0.7" fill="#cfdee8" opacity="0.45"/><circle cx="100.6" cy="27.5" r="0.7" fill="#cfdee8" opacity="0.2"/><circle cx="238.1" cy="99.4" r="0.7" fill="#cfdee8" opacity="0.2"/>
<g transform="translate(866 318) rotate(-25)" fill="none" stroke="#a9bdcb"><ellipse rx="262" ry="120" opacity=".25"/><ellipse rx="224" ry="98" opacity=".18"/><ellipse rx="182" ry="78" opacity=".15"/></g>
<circle cx="866" cy="318" r="90" fill="url(#core)"/><circle cx="866" cy="318" r="9" fill="#f0f6ff"/>
<text x="82" y="109" fill="#b8c7d1" font-family="Segoe UI,Arial,sans-serif" font-size="17" letter-spacing="5">PORTFOLIO</text>
<text x="78" y="269" fill="#f0f2f5" font-family="Microsoft YaHei,Arial,sans-serif" font-size="55" font-weight="300">熊志愿</text>
<text x="80" y="338" fill="#f0f2f5" font-family="Segoe UI,Arial,sans-serif" font-size="48" font-weight="300">Xiong Zhiyuan</text>
<text x="82" y="403" fill="#a9bac6" font-family="Segoe UI,Arial,sans-serif" font-size="21">Experience · Visual · Spatial Design</text>
<path d="M82 491H430" stroke="#627583" stroke-opacity=".5"/>
<text x="82" y="537" fill="#b8c7d1" font-family="Segoe UI,Arial,sans-serif" font-size="17">xiongzhiyuan-portfolio.pages.dev</text></svg>